<svg xmlns="http://www.w3.org/2000/svg" xmlns:xlink="http://www.w3.org/1999/xlink" version="1.1" x="0px" y="0px" viewBox="0 0 100 125" enable-background="new 0 0 100 100" xml:space="preserve"><g display="none"><g display="inline"><path fill-rule="evenodd" clip-rule="evenodd" d="M50,4.7c-24.8,0-45,20.2-45,45s20.2,45,45,45s45-20.2,45-45S74.8,4.7,50,4.7z     M82.5,57.7l-0.4,0.6l-0.5,0.9l-1,0.9l-0.2,0.3l0,0.6l-0.4,0.3l-0.1,0.2l0.3,0.2h0.4l-0.1,0.3l-0.5,0.5v0.2l0.2,0.1l0.2-0.2l0.2,0    l-0.2,0.4l-0.4,1.4L79.5,65l-0.1,0.1l-0.2-0.4l-0.5-0.3l0-0.1l0.2-0.2l0-0.5l-0.3,0.1l-0.5,0.6l-0.4,0.3l0,0l-0.2,0l-0.3,0.1    l-0.1,0.2l-0.1,0.3l-0.3,0.4l0,0.1l-0.2,0l-0.1,0.1l-0.1-0.1l0-0.2l-0.3,0l-0.2,0.2l0,0.3L71.9,66l-0.1,1.2l-1,0.1l0.3,0.3    l0.1,0.2l0.4,0.5l0.4,0.2h0.3l0.2,0.3l0,0.3l0.2,0.2l0.4,0l0.2,0.1l0,0.3L73.1,70l-2.9,0l-1.4,2.2l0,0.4l0,0.1l0,0.2l0.1,0.2    l0.1,0.1l0,0.2l-0.2,0.2l-0.1,0.2l-0.1,0.1l-0.4-0.4l-0.6-0.5l-0.1-0.3l-0.5-0.1l-1.6-1.3l-0.2-0.3v-0.2L65,70.2l-0.4-0.3    l-0.4-0.1L64,69.7l-0.2,0l0,0.1l0.7,0.3l0.5,0.5v0.1l-0.3-0.3l-0.7-0.4L63.8,70l-0.3,0l-0.2-0.1l0.1-0.1l0.2,0v-0.2h-0.3L63,69.7    v-0.2l-0.2-0.1l-0.5,0.3l0,0.2h0.4l0.4,0.1v0.1l-0.2,0l-0.6,0l-0.5,0.1l-0.6,0.4l-0.5,0l-1.2,0.5l-0.5,0L58,70.8l-0.6-0.3h-0.8    l-0.8-0.3l-0.4-0.3l-0.2,0l-0.4,0l-0.6-0.3L54,69.1L53.8,69l-0.3,0.1l-0.6-0.3l-0.6,0L52,68.3l-0.5-0.3l-1.1-0.2l-1-0.4l-0.7-0.7    l-0.3,0l-1.1-1.1l-0.2-0.3l-0.3,0l-0.1,0.2l-0.3,0l-0.9-0.3l-0.3,0l-0.5-0.2l-0.2,0.1L44.1,65l-0.3-0.5l-0.4-0.6l-0.6-0.5    l-0.6-0.2v-0.2l0.2-0.3l-0.3,0l-0.5,0.1L41,62.5l-0.1-0.3h-0.3L40.3,62l-0.2-0.6l-0.4-0.6v-0.3l-0.3-0.3l-0.3-0.8v-0.2l0.3-0.2    l0.5,0l0.2-0.2l-0.3-0.2l-0.2,0l0.1-0.3l0.5-0.5l0.2-0.4l0-0.5l-0.5-1.2l-0.2-0.7l-0.2-0.3l0.2-0.4l-0.1-0.4l-0.8-1l0-0.5L38,51.7    l-0.5-0.9l-0.7-0.9l-0.6-0.5L36,49.2l0-0.3l-0.7-0.3l-0.4-0.2l0-0.2l0.3-0.1l0.2-0.4l-0.2-0.3L35,47l-0.1-0.3h-0.3l-0.5-0.1    l-0.9-0.7l-0.3-0.2l-0.4,0l-0.4-0.3L32.1,45l0.2-0.6l0.4-0.4l0.3-0.1l0.2,0.2l0.2-0.2l-0.1-0.3l-0.1-0.1l-0.1,0.1l-0.3-0.2    L32.7,43l-0.4-0.5l-0.4,0l-0.4-0.1l-0.2-0.4l0.1-0.4l-0.3-0.1l-0.3,0l-0.8-0.7L30,40.3l0.2-0.3l0-0.5L30,39.3l-0.3,0.1l-0.2-0.1    l-0.3,0l-0.1-0.2l-0.3-0.2l-0.1-0.4l-0.2-0.5l-0.3-0.1L28,37.6l0-0.5l-0.1-0.4l-0.3-0.1l-0.2-0.7l-0.2-0.2h-0.2l-0.1-0.3l0.1-0.2    l0-0.2l-0.6-0.8l-0.2-0.4l0.1-0.3l-0.1-0.5L26,32.5l-0.1-0.8l-0.2-0.5l0-0.4l0.3-0.4v-0.2l-0.5-0.3l-0.4,0l-0.1-0.3l-0.4-0.4    l-0.2,0.2l-0.4,0.1l-0.3-0.2l-0.4-0.6l-0.6-0.3l-0.3-0.5l0.2,0.5l0.1,0.4l-0.2,0.8l-0.2,0.5l0.1,1l0.1,1.6L22.2,33l0.2,0.3    l0.3,0.7l0,0.4l0.2,0l0.2,0.3l0.6,0.4l0.1,0.6l-0.1,0.3l0.1,0.4l0.4,0.2l0.3,0.3l0,0.5l0.2,0.2l0.3,0.1l0.4,0.6l0,0.5l0,0.5    l0.4,0.4l0.2,0.1l0.4,0.6l0.1,0.9l0.2,0l0.1,0.2l-0.1,0.3l0,0.3l0.4,0.6l0.2-0.1l0-0.3l0-0.2l0.2,0l0.1,0.3L28,43l0.1,0.9L28,44.2    l0,0.6l0.1,0.2v0.4l0.3,0.3l0,0.3l0.2,0.3l0,0.3l-0.1,0.3l0.3,0.5l0,0.5l-0.2,0.5l0,0.3l0.4,0.5l0.3,0.3l0.1,0.3l0.2-0.1l0-0.3    l0.1-0.1l0.2,0.1l0.2,0.3l0.1,0.3l0.3,0.2l0.1,0.4l0.2,0.2l0.1,0.4l0.3,0.2l0,0.6l-0.4,0.6l-0.7,0.3l-0.3-0.1l-0.2-0.5l0-0.3    l-0.3-0.2l0-0.6l-0.2-0.3l-0.5,0l-0.3-0.4l-0.2-0.3l-0.3-0.1l-1-1l-0.2-0.4l-0.4-0.1l-0.1-0.3l-0.2,0l-0.4-0.4l-0.1-0.4l0.4-0.6    l0.1-0.7l-0.1-0.9L25.8,44l-0.2-0.3l-0.2,0.1L25,43.6l-0.8-0.8l-0.1-0.7l0.1-0.4l-0.2,0l-0.4,0.5l-0.3,0l-0.3,0.1L22.9,42l0.1-0.2    l-0.3-0.1l-0.3,0v-0.2l-0.5-0.2l-0.4-0.1l-0.2-0.4l0-0.4l-0.4-0.2l-0.5-0.6l0.1-0.1l0.6,0l0.3,0.1l0.6,0.1l0.3,0.2l0.2-0.2    l0.1-0.3l-0.4-0.1l0-0.1l0.2-0.2l0.3,0.1l0.1-0.4l-0.2-0.3l0-0.2l0.3-0.3l-0.3-0.5l-0.2-0.1l-0.2-0.7l-0.6-0.6l-0.1-0.4l-0.3-0.5    l-0.6-0.6l-0.3,0l-0.4-0.4l-0.2-0.6l0-0.8l-0.1-0.3l-0.3-0.2l0-0.5l0.1-0.2l-0.1-0.4l-0.5-0.4l-0.1-0.3l0.1-0.1l0-0.2l-0.6-0.7    l-0.1-0.4l0.1-0.4l0.2-0.1L18.1,28l-0.3-0.5l-0.3-1.2l-0.1-0.5l5.4-0.1l0.1,0.2L23,26.1l7.7,3.5l6.5,0.2l0-0.8l3.7,0.1l0.4,0.3    l0.4,0.5l0.2,0.2l0,0.2l0.2,0l0.2,0.3l-0.1,0.2l0.4,0.1l0.3,0.3l0,0.2l-0.1,0.2l0.3,0.1l0.3,0.2l0.2,0.3l0,0.5l0.2,0.2l0.1,0    l0.1,0.2l0.3,0.2l0,0.3l-0.1,0.1l-0.3,0.1v0.2l0.4,0.5l0.3,0.4l0.1,0.3l0,0.1l0.1,0l0.2,0.2l0.1,0l0.2,0.1l0.1,0.2l0,0.1l0.2,0.2    l0.3,0l0.5,0.2l0.1,0.2l0.4,0.1l0.5,0.2l0.1,0.2l0.2,0l0.2-0.1l0-0.1l0.3-0.3l0.2-0.1l0-0.2l0-0.1l0.2-0.3l0.3-0.6l0.2-0.2    l0.3-0.1l0.2,0l0,0.1l0.2,0l0.1-0.3l0.4,0l0.4,0.1l0.4,0l0.2,0.1l0.1,0.1l0.3-0.1l0.3,0.2l0.2,0.3l0.4,0.4l0.4,0.5l0.2,0.5    l0.1,0.2l0.1,0.3l0,0.5l0.2,0.1l0.1,0.3l0.3,0.8l0.2,0.1l0.1,0.3l0.4,0.2l0.1,0.4l0.2,0.4l0.4,0.4l0,0.4l0,0.4l0,0.1l0,0.1    l0.5,1.3l0,0.6l0.2,0.2l0.1,0.1l0.3,0.1l0.3,0l0.3,0.2l0.4,0.4l0.7,0.3l0.4,0.2l0.4,0.1l0.1,0.3l0.2,0.1l-0.1,0.3l0.4-0.3l0.1-0.7    l0.3-0.3l-0.1,0.2l-0.1,0.6l-0.2,0.2l-0.1,0.5l-0.3,0.5l-0.1,0.4l-0.3,0l0.1-0.2l0.1-0.4l-0.4,0v0.6l-0.3,0.3l0.3,0.2l-0.1,0.2    l-0.1,0.6L58.1,49v0.5l0.1,0.2L58.1,50l0,0.3l-0.2,1.1l0.1,0.7l-0.1,1.1l-0.4,0.5l0.1,0.4l0.1,0.9l-0.1,0.5l0.6,0.9l0,0.7    l-0.1,0.1l-0.1-0.8l-0.5-0.7l-0.1,0.5l0.3,0.3l0.3,0.9l0.1,0.3l-0.2,0.3l0.3,0.4l0.1,0.4l1.2,1.3l0.2,0.5l0.4,0.6l0,0.3l0.1,0.4    l0.9,1.1l0.3,0.3l0.2,0l0.6,0l0.1,0.2l0.7,0.3l0.5,0.7l0.2,0.6l0.5-0.3l0.8-0.2l0.2,0.2h0.3l0.9-0.5l0.1-0.2l0.8-0.1l0.5,0    l0.4-0.3l0.6,0l0.5,0.1l0.2-0.3l0.6,0.2l-0.4,0.2L70,64.5l0.5,0.2l0.3,0.3l0.1-0.2l0.3,0l0.4-0.5l0-0.7l0.1-0.4l-0.4,0.3l-0.1-0.1    l1-0.5l0.3-0.1l0.4-0.5v-0.8l0.8-0.9l-0.1-0.2l0.1-1.4l0.9-1l-0.4,0v-0.3l1.5-0.4l1.9,0l0.3-0.5l0.6-0.1l0.2,0.2l0.6-0.3l0-0.2    l0.9,0l1,0.3l0.3-0.1l-0.1-0.3l0.4,0l0.7,0.8L82.5,57.7z M29.9,48.6l-0.1,0.2l-0.2,0l0-0.3L29.9,48.6z M29.5,47.4l-0.2,0.2    l-0.1-0.5L29,46.9l0.1-0.2l0.3,0.4L29.5,47.4z M58.7,47.9l0.1-0.3l0.2,0l-0.1,0.3L58.7,47.9z M58.8,48.2l-0.1,0.4l-0.1-0.1l0-0.3    H58.8z M58.6,49.1l-0.2,0.4l0.2-0.7L58.6,49.1z"/></g></g><g><path fill-rule="evenodd" clip-rule="evenodd" d="M5,16.6l7.5-0.1l0.2,0.3L12.6,17l10.7,4.9l9,0.3l0.1-1.2l5.1,0.2l0.6,0.4l0.5,0.7   l0.3,0.3l0.1,0.3l0.3,0l0.3,0.4l-0.1,0.3l0.5,0.2l0.5,0.4l0,0.3l-0.2,0.2l0.4,0.1l0.4,0.3l0.3,0.5l0.1,0.7l0.2,0.3l0.2,0l0.1,0.2   l0.4,0.3l0,0.5L42,27.7l-0.4,0.1V28l0.5,0.6l0.4,0.5l0.1,0.4l0,0.2l0.2,0l0.3,0.3l0.2,0l0.3,0.1l0.1,0.2l0,0.2l0.2,0.2l0.4,0   l0.6,0.3l0.1,0.2l0.5,0.2l0.6,0.3l0.2,0.2l0.3,0L47,32l0.1-0.2l0.4-0.4l0.3-0.1l0.1-0.3l-0.1-0.2l0.3-0.3l0.5-0.9l0.3-0.3l0.4-0.1   l0.2,0.1l0.1,0.1l0.2,0L50,29l0.6,0l0.5,0.1l0.6,0l0.2,0.1l0.1,0.2l0.4-0.1l0.4,0.2l0.3,0.5l0.6,0.5l0.5,0.7l0.2,0.7l0.2,0.3   l0.1,0.5l0,0.7l0.3,0.2l0.2,0.4l0.4,1.1l0.3,0.2l0.1,0.4l0.5,0.3l0.1,0.6l0.3,0.5l0.5,0.5l-0.1,0.6l-0.1,0.6l0,0.2l0.1,0.2l0.6,1.8   l0,0.8l0.3,0.3l0.1,0.1l0.4,0.1l0.4-0.1l0.4,0.2l0.5,0.5l1,0.3l0.6,0.3l0.6,0.1l0.2,0.4l0.3,0.1l-0.2,0.5l0.5-0.4l0.2-0.9l0.4-0.4   l-0.1,0.3l-0.1,0.8l-0.2,0.3l-0.2,0.7l-0.5,0.7l-0.1,0.5l-0.4,0l0.1-0.3l0.1-0.6l-0.5,0v0.9l-0.4,0.5l0.4,0.3l-0.1,0.3l-0.2,0.9   l-0.3,0.3v0.7l0.2,0.3l-0.2,0.4l0,0.5l-0.3,1.6l0.2,1l-0.2,1.5l-0.5,0.7l0.2,0.5l0.2,1.2l-0.1,0.7l0.8,1.3l0,0.9l-0.2,0.2L61.2,59   l-0.7-0.9l-0.1,0.7l0.5,0.4l0.4,1.3l0.2,0.4l-0.2,0.4l0.4,0.5l0.1,0.6l1.7,1.9l0.3,0.7l0.6,0.9l0,0.5l0.2,0.5l1.3,1.5l0.4,0.4   l0.3-0.1l0.9,0l0.2,0.2l0.9,0.4l0.7,1l0.2,0.8l0.8-0.3l1.1-0.2l0.3,0.3h0.4l1.3-0.7l0.2-0.3l1.1-0.1l0.7,0l0.6-0.5l0.8,0l0.7,0.2   l0.3-0.4l0.9,0.2l-0.6,0.3l-0.2,0.4l0.7,0.3l0.4,0.4l0.1-0.3l0.4,0l0.6-0.7l0-0.9l0.2-0.5l-0.6,0.4l-0.1-0.1l1.4-0.7l0.5-0.1   l0.6-0.7v-1.1l1.1-1.2l-0.1-0.2l0.1-2l1.2-1.3l-0.5,0v-0.5l2-0.5l2.7,0l0.5-0.6l0.8-0.1l0.3,0.3l0.8-0.4l0-0.3l1.2,0l1.5,0.4   l0.4-0.1l-0.1-0.4l0.6,0l0.9,1.2l0,0.7l-0.5,0.8l-0.7,1.2l-1.4,1.2l-0.3,0.5l-0.1,0.8l-0.6,0.4l-0.2,0.2l0.4,0.3h0.5l-0.1,0.5   l-0.7,0.7v0.2l0.3,0.1l0.3-0.3l0.3,0l-0.3,0.5l-0.5,2l-0.6,1L90.7,71l-0.2-0.6L89.8,70l0-0.2l0.3-0.3l0.1-0.6L89.7,69L89,69.8   l-0.5,0.5l0,0l-0.2,0l-0.4,0.1l-0.1,0.3l-0.1,0.5l-0.4,0.5l0,0.1L87,71.9L86.9,72l-0.1-0.1l0-0.2l-0.5,0l-0.3,0.2l0,0.5l-5.5-0.1   l-0.1,1.6L78.9,74l0.5,0.4l0.2,0.3l0.5,0.6l0.5,0.3h0.4l0.2,0.4l0.1,0.5l0.2,0.2l0.5,0l0.3,0.2l0,0.4L82,77.8l-4,0l-1.9,3l0.1,0.5   l0.1,0.2l-0.1,0.3l0.1,0.3l0.1,0.1l0,0.3l-0.3,0.2L76,83l-0.1,0.1l-0.5-0.6l-0.9-0.7l-0.1-0.4l-0.7-0.2l-2.2-1.8L71.3,79v-0.3   l-0.5-0.7l-0.5-0.5l-0.6-0.1l-0.1-0.1l-0.2,0l0,0.2l1,0.5l0.7,0.7v0.2l-0.4-0.4l-1-0.6l-0.6-0.2l-0.5,0l-0.2-0.1l0.1-0.1l0.3,0   v-0.3h-0.4L68,77.4v-0.3L67.8,77l-0.7,0.4l0,0.3h0.5l0.6,0.1v0.2l-0.3,0L67.1,78l-0.6,0.1l-0.9,0.6l-0.7,0l-1.6,0.7l-0.6,0   l-1.6-0.6l-0.8-0.5h-1.1l-1.2-0.5l-0.6-0.4l-0.2,0.1l-0.5,0l-0.8-0.4l-0.4-0.7l-0.2-0.1l-0.5,0.2L54,76.2l-0.9-0.1l-0.4-0.6   L52,75.1l-1.6-0.2l-1.4-0.5l-0.9-0.9l-0.4-0.1l-1.5-1.5L46,71.5l-0.4,0l-0.2,0.2l-0.5,0l-1.2-0.5l-0.4,0L42.7,71L42.5,71l-0.6-0.2   l-0.5-0.7l-0.5-0.9l-0.8-0.7l-0.8-0.3V68l0.3-0.4l-0.4-0.1l-0.7,0.1l-1-0.2L37.3,67h-0.5l-0.3-0.2L36.3,66l-0.6-0.8v-0.5l-0.4-0.4   l-0.4-1.1V63l0.4-0.2l0.7,0l0.3-0.3l-0.4-0.3l-0.3,0l0.1-0.4l0.7-0.6l0.3-0.6l0-0.7L36,58.1l-0.3-0.9l-0.2-0.4l0.2-0.6l-0.1-0.6   l-1.2-1.4l0-0.6l-1-1l-0.7-1.3l-1-1.2l-0.8-0.7l-0.3-0.2l0-0.4l-0.9-0.4l-0.5-0.3l0-0.2l0.4-0.2l0.2-0.5l-0.2-0.4L29.2,46l-0.2-0.4   h-0.4L28,45.4l-1.2-1l-0.4-0.3l-0.6,0l-0.5-0.4l-0.1-0.6l0.3-0.9l0.5-0.6l0.4-0.1l0.3,0.3l0.2-0.3l-0.1-0.4l-0.2-0.2l-0.2,0.2   l-0.4-0.2L26,40.4l-0.5-0.7L25,39.8l-0.5-0.1l-0.3-0.5l0.1-0.6l-0.4-0.1l-0.4,0l-1.1-1l-0.1-0.9l0.2-0.4l0-0.7l-0.3-0.3l-0.4,0.2   l-0.2-0.2l-0.4,0L21.1,35l-0.4-0.3l-0.2-0.5l-0.3-0.7l-0.4-0.1L19.5,33l-0.1-0.7l-0.2-0.5l-0.4-0.2l-0.3-1l-0.2-0.3H18l-0.2-0.4   l0.2-0.3l0-0.3l-0.8-1.1L17,27.5l0.1-0.4l-0.1-0.7l-0.3-0.5l-0.2-1.1L16.3,24l0-0.5l0.4-0.5v-0.3L16,22.3l-0.6,0l-0.2-0.4l-0.5-0.5   l-0.3,0.2l-0.5,0.1l-0.4-0.3L13,20.5l-0.8-0.4l-0.4-0.7l0.2,0.7l0.1,0.6l-0.3,1.1l-0.3,0.7l0.2,1.3l0.1,2.2l-0.3,0.5l0.3,0.4   l0.4,0.9l0,0.6l0.3,0l0.3,0.5l0.9,0.6l0.2,0.8l-0.1,0.4l0.2,0.6l0.5,0.2l0.4,0.4l0.1,0.7l0.2,0.3l0.4,0.1l0.5,0.8l-0.1,0.7l0,0.7   l0.6,0.5l0.2,0.1l0.5,0.8l0.2,1.3l0.3,0l0.2,0.3l-0.2,0.5l0,0.4l0.6,0.9l0.2-0.2l0-0.4l0-0.2l0.2,0l0.2,0.4l0.4,0.6l0.2,1.2   L19.6,42l0.1,0.8l0.2,0.3v0.6l0.4,0.4l0,0.4l0.3,0.4l0,0.4l-0.1,0.4l0.5,0.7l0,0.7l-0.3,0.6l0.1,0.4l0.5,0.7l0.5,0.4l0.1,0.4   l0.3-0.1l0-0.4l0.2-0.1l0.3,0.2l0.3,0.4l0.2,0.4l0.5,0.3l0.2,0.6l0.3,0.3l0.2,0.6l0.4,0.2l0,0.8l-0.6,0.9l-1,0.4l-0.4-0.1l-0.3-0.7   l0-0.5l-0.4-0.3l-0.1-0.8l-0.3-0.4L20.8,51l-0.5-0.6L20.1,50l-0.5-0.2l-1.3-1.5L18,47.7l-0.6-0.1l-0.2-0.4l-0.3,0.1l-0.6-0.5   l-0.1-0.5l0.5-0.9l0.2-1L16.9,43l-0.4-1.2l-0.3-0.5l-0.3,0.1l-0.5-0.2l-1.1-1l-0.2-1l0.2-0.5l-0.2-0.1l-0.5,0.6l-0.4,0l-0.4,0.2   L12.5,39l0.1-0.2l-0.4-0.2l-0.4,0v-0.3L11.1,38l-0.5-0.2l-0.3-0.6l0-0.6l-0.6-0.2L9,35.5l0.2-0.2l0.8-0.1l0.5,0.2l0.8,0.1l0.4,0.3   l0.2-0.3l0.1-0.4l-0.5-0.1l-0.1-0.2l0.3-0.3l0.4,0.2l0.2-0.5L12,33.9l0-0.3l0.4-0.5l-0.4-0.7l-0.3-0.1l-0.3-1l-0.8-0.8l-0.1-0.5   L10,29.4l-0.9-0.9l-0.4,0L8.2,28l-0.3-0.9l0-1.1l-0.2-0.4l-0.4-0.3l0-0.6l0.2-0.3l-0.1-0.6l-0.7-0.6l-0.1-0.4l0.2-0.2l0-0.3l-0.8-1   l-0.2-0.6L6,20.2l0.2-0.2l-0.3-0.5l-0.4-0.7l-0.4-1.6L5,16.6L5,16.6z M21.3,46.8l0.3-0.2l-0.1-0.5l-0.4-0.5L21,45.8l0.2,0.3   L21.3,46.8L21.3,46.8z M21.8,48.1l0,0.4l0.3,0l0.1-0.3L21.8,48.1L21.8,48.1z M62.1,47.2l0.2-0.1l0.1-0.4l-0.2,0L62.1,47.2   L62.1,47.2z M61.9,48l0.1,0.1l0.2-0.5H62L61.9,48L61.9,48z M61.6,49.4l0.3-0.5l0-0.5L61.6,49.4z"/></g><text x="0" y="115" fill="#000000" font-size="5px" font-weight="bold" font-family="'Helvetica Neue', Helvetica, Arial-Unicode, Arial, Sans-serif">Created by Tom Walsh</text><text x="0" y="120" fill="#000000" font-size="5px" font-weight="bold" font-family="'Helvetica Neue', Helvetica, Arial-Unicode, Arial, Sans-serif">from the Noun Project</text></svg>